<?xml version="1.0" standalone="no"?>
<!DOCTYPE svg PUBLIC "-//W3C//DTD SVG 20010904//EN"
 "http://www.w3.org/TR/2001/REC-SVG-20010904/DTD/svg10.dtd">
<svg version="1.0" xmlns="http://www.w3.org/2000/svg"
 width="200.000000pt" height="200.000000pt" viewBox="0 0 200.000000 200.000000"
 preserveAspectRatio="xMidYMid meet">
<metadata>
Created by potrace 1.14, written by Peter Selinger 2001-2017
</metadata>
<g transform="translate(0.000000,200.000000) scale(0.100000,-0.100000)"
fill="#000000" stroke="none">
<path d="M910 1894 c-78 -15 -186 -73 -246 -132 -68 -65 -129 -180 -149 -278
-4 -21 -9 -91 -10 -156 l-3 -116 99 -1 c73 -1 99 2 100 11 1 7 2 58 3 113 3
131 25 200 84 266 55 62 108 90 182 96 144 13 271 -76 311 -219 7 -24 13 -90
15 -148 1 -58 3 -108 3 -112 1 -3 45 -6 99 -5 l97 2 -1 100 c0 125 -7 176 -33
249 -57 162 -185 281 -346 323 -29 7 -176 12 -205 7z"/>
<path d="M524 1069 c-95 -12 -170 -72 -207 -167 -15 -36 -17 -80 -14 -330 l2
-289 30 -48 c35 -57 100 -110 153 -125 23 -6 216 -10 513 -10 544 0 539 -1
620 80 76 76 81 101 77 427 -3 246 -5 282 -21 315 -28 55 -80 106 -134 130
-47 21 -60 22 -508 23 -253 0 -483 -3 -511 -6z m526 -204 c55 -13 110 -86 110
-148 0 -50 -25 -103 -62 -130 -27 -20 -28 -23 -28 -113 0 -121 -6 -149 -36
-163 -37 -16 -52 -14 -79 14 -24 23 -25 31 -25 133 0 107 0 108 -28 129 -16
12 -36 37 -45 56 -45 94 5 197 108 228 20 6 37 5 85 -6z"/>
</g>
</svg>
